HIERARCHY
ROOT Hips
{
	OFFSET 0.00000 0.00000 0.00000
	CHANNELS 6 Xposition Yposition Zposition Zrotation Yrotation Xrotation 
	JOINT LHipJoint
	{
		OFFSET 0 0 0
		CHANNELS 3 Zrotation Yrotation Xrotation
		JOINT LeftHip
		{
			OFFSET 1.52977 -1.71332 0.88991
			CHANNELS 3 Zrotation Yrotation Xrotation
			JOINT LeftKnee
			{
				OFFSET 2.23949 -6.15296 0.00000
				CHANNELS 3 Zrotation Yrotation Xrotation
				JOINT LeftAnkle
				{
					OFFSET 2.68396 -7.37412 0.00000
					CHANNELS 3 Zrotation Yrotation Xrotation
					JOINT LeftToe
					{
						OFFSET 0.20538 -0.56428 2.52710
						CHANNELS 3 Zrotation Yrotation Xrotation
						End Site
						{
							OFFSET 0.00000 -0.00000 1.29919
						}
					}
				}
			}
		}
	}
	JOINT RHipJoint
	{
		OFFSET 0 0 0
		CHANNELS 3 Zrotation Yrotation Xrotation
		JOINT RightHip
		{
			OFFSET -1.45689 -1.71333 0.88991
			CHANNELS 3 Zrotation Yrotation Xrotation
			JOINT RightKnee
			{
				OFFSET -2.36700 -6.50329 0.00000
				CHANNELS 3 Zrotation Yrotation Xrotation
				JOINT RightAnkle
				{
					OFFSET -2.69814 -7.41308 0.00000
					CHANNELS 3 Zrotation Yrotation Xrotation
					JOINT RightToe
					{
						OFFSET -0.18734 -0.51471 2.37479
						CHANNELS 3 Zrotation Yrotation Xrotation
						End Site
						{
							OFFSET -0.00000 -0.00000 1.22113
						}
					}
				}
			}
		}
	}
	JOINT lowerback
	{
		OFFSET 0 0 0
		CHANNELS 3 Zrotation Yrotation Xrotation
		JOINT Chest
		{
			OFFSET 0.04294 2.14638 -0.31163
			CHANNELS 3 Zrotation Yrotation Xrotation
			JOINT Chest2
			{
				OFFSET -0.00400 2.17216 0.01486
				CHANNELS 3 Zrotation Yrotation Xrotation
				JOINT lowerneck
				{
					OFFSET 0 0 0
					CHANNELS 3 Zrotation Yrotation Xrotation
					JOINT Neck
					{
						OFFSET 0.03869 1.76598 0.14916
						CHANNELS 3 Zrotation Yrotation Xrotation
						JOINT Head
						{
							OFFSET -0.00760 1.75513 -0.18948
							CHANNELS 3 Zrotation Yrotation Xrotation
							End Site
							{
								OFFSET -0.00601 1.82444 -0.08310
							}
						}
					}
				}
				JOINT LeftCollar
				{
					OFFSET 0 0 0
					CHANNELS 3 Zrotation Yrotation Xrotation
					JOINT LeftShoulder
					{
						OFFSET 3.73696 0.92058 0.01733
CHANNELS 3 Zrotation Xrotation Yrotation
						JOINT LeftElbow
						{
OFFSET 0 -5.227710 0.000000
CHANNELS 3 Zrotation Xrotation Yrotation
							JOINT LeftWrist
							{
OFFSET 0 -3.452510 0.000000
CHANNELS 3 Zrotation Xrotation Yrotation
								JOINT lhand
								{
									OFFSET 0 0 0
CHANNELS 3 Zrotation Xrotation Yrotation
									JOINT LFingers
									{
OFFSET 0 -0.552120 0.000000
CHANNELS 3 Zrotation Xrotation Yrotation
										End Site
										{
OFFSET 0 -0.445130 0.000000
										}
									}
								}
								JOINT LThumb
								{
OFFSET 0 0.000000 0.000000
CHANNELS 3 Zrotation Xrotation Yrotation
									End Site
									{
OFFSET 0 -0.451930 0.451930
									}
								}
							}
						}
					}
				}
				JOINT RightCollar
				{
					OFFSET 0 0 0
					CHANNELS 3 Zrotation Yrotation Xrotation
					JOINT RightShoulder
					{
						OFFSET -3.63819 0.83094 -0.13694
CHANNELS 3 Zrotation Xrotation Yrotation
						JOINT RightElbow
						{
OFFSET 0 -5.239800 -0.000000
CHANNELS 3 Zrotation Xrotation Yrotation
							JOINT RightWrist
							{
OFFSET 0 -3.480420 -0.000000
CHANNELS 3 Zrotation Xrotation Yrotation
								JOINT rhand
								{
									OFFSET 0 0 0
CHANNELS 3 Zrotation Xrotation Yrotation
									JOINT RFingers
									{
OFFSET 0 -0.618710 0.000000
CHANNELS 3 Zrotation Xrotation Yrotation
										End Site
										{
OFFSET 0 -0.498820 0.000000
										}
									}
								}
								JOINT RThumb
								{
OFFSET 0 0.000000 0.000000
CHANNELS 3 Zrotation Xrotation Yrotation
									End Site
									{
OFFSET 0 -0.506440 0.506440
									}
								}
							}
						}
					}
				}
			}
		}
	}
}
MOTION
Frames: 8
Frame Time: 0.008333333333333333
6.967754 16.210405 -5.331544 65.256235 -88.176505 -51.975745 0.000000 0.000000 0.000000 -20.101451 -1.145938 -40.112431 12.788846 18.704565 68.468290 0.031206 -5.547841 8.785599 1.651304 -8.098464 -23.013578 0.000000 0.000000 0.000000 6.552141 21.558924 -61.180919 -7.230933 -15.523072 49.741972 -0.065197 -15.267862 11.421431 -0.087403 -1.904843 5.242937 2.021640 -1.912838 33.574049 -1.992374 -2.986399 9.833269 -2.071192 -1.796095 -6.483429 3.367561 1.568945 1.190897 0.071029 1.802524 -23.345691 -0.622441 0.232415 -7.307987 0.000000 0.000000 0.000000 7.637817 -4.313629 -25.886592 20.624637 -31.387468 5.853204 21.240874 -16.135491 -14.531642 0.000000 0.000000 0.000000 -7.125000 0.000000 0.000000 -5.873442 45.438798 0.063810 0.000000 0.000000 0.000000 -0.695291 -0.551821 30.983878 -30.208043 -41.071061 -11.546085 -21.737963 1.779550 11.498616 0.000000 0.000000 0.000000 7.125000 0.000000 0.000000 4.877457 42.281701 0.327950
7.314827 16.221642 -5.307902 64.395683 -88.069235 -50.848014 0.000000 0.000000 0.000000 -20.475817 -1.243395 -40.882806 12.475339 18.584380 67.487608 -0.048426 -6.161862 7.319183 1.721765 -8.260861 -23.509112 0.000000 0.000000 0.000000 5.559770 22.036717 -61.267499 -6.537531 -14.928819 47.101038 0.015384 -17.613712 12.241649 -0.187407 -2.783127 7.675889 1.898897 -1.859906 33.804283 -1.971192 -2.957339 9.821188 -1.986869 -1.783902 -6.574431 3.391144 1.561983 1.251745 0.044677 1.789083 -23.523273 -0.634920 0.219258 -7.377194 0.000000 0.000000 0.000000 7.679026 -4.527030 -26.071748 20.798371 -31.592195 5.943986 21.341966 -16.047609 -14.569157 0.000000 0.000000 0.000000 -7.125000 0.000000 0.000000 -5.787540 45.491058 0.070410 0.000000 0.000000 0.000000 -0.740700 -0.730132 31.170780 -30.370488 -41.208831 -11.652903 -21.663394 1.772133 11.530571 0.000000 0.000000 0.000000 7.125000 0.000000 0.000000 4.949026 42.308020 0.329575
7.663294 16.238103 -5.284070 64.998590 -87.989211 -51.160984 0.000000 0.000000 0.000000 -20.791765 -1.357641 -42.058995 12.291800 18.511290 66.910797 -0.088830 -6.537290 6.492065 1.694487 -8.198420 -23.318410 0.000000 0.000000 0.000000 4.495489 22.485973 -61.347768 -5.844242 -14.274291 44.350632 0.147881 -20.432443 13.160224 -0.343011 -3.758240 10.398058 1.737793 -1.766128 34.042399 -1.954349 -2.891458 9.805472 -1.899711 -1.754617 -6.669269 3.429157 1.537117 1.331240 0.079964 1.765567 -23.710758 -0.629071 0.194068 -7.454214 0.000000 0.000000 0.000000 7.737890 -4.741945 -26.334209 20.970306 -31.793611 6.034266 21.409079 -16.019327 -14.592231 0.000000 0.000000 0.000000 -7.125000 0.000000 0.000000 -5.730098 45.523981 0.074326 0.000000 0.000000 0.000000 -0.769000 -0.970674 31.260702 -30.454911 -41.280135 -11.708608 -21.598049 1.747794 11.572681 0.000000 0.000000 0.000000 7.125000 0.000000 0.000000 5.014052 42.346206 0.329224
8.008235 16.253093 -5.258948 67.081274 -87.936507 -52.973320 0.000000 0.000000 0.000000 -21.126358 -1.396590 -43.486386 12.196810 18.472614 66.611391 -0.105853 -6.669327 6.016972 1.629235 -8.046751 -22.856180 0.000000 0.000000 0.000000 3.467509 22.789599 -61.462452 -5.206659 -13.611364 41.705226 0.306326 -23.364577 14.225984 -0.519675 -4.618028 12.822655 1.584879 -1.640171 34.290394 -1.954172 -2.786594 9.788699 -1.848475 -1.706908 -6.768209 3.463473 1.486047 1.404725 0.151092 1.713390 -23.858011 -0.608780 0.153892 -7.518024 0.000000 0.000000 0.000000 7.815215 -4.967919 -26.641190 21.113720 -31.960850 6.110038 21.396835 -16.039021 -14.639181 0.000000 0.000000 0.000000 -7.125000 0.000000 0.000000 -5.751058 45.571995 0.081458 0.000000 0.000000 0.000000 -0.756673 -1.187074 31.218720 -30.515450 -41.331092 -11.748518 -21.632395 1.716807 11.584667 0.000000 0.000000 0.000000 7.125000 0.000000 0.000000 4.985251 42.362424 0.325304
8.344793 16.259430 -5.230754 70.764413 -87.943718 -56.436831 0.000000 0.000000 0.000000 -21.463228 -1.343175 -44.987858 12.165604 18.459775 66.512813 -0.114703 -6.688824 5.604124 1.586384 -7.945443 -22.548544 0.000000 0.000000 0.000000 2.633639 22.885291 -61.669519 -4.710093 -13.048873 39.553107 0.369085 -25.407478 15.449286 -0.595092 -4.938664 13.733678 1.491217 -1.494815 34.519037 -1.962562 -2.640826 9.771050 -1.853399 -1.639883 -6.861578 3.488702 1.423930 1.469488 0.179370 1.638383 -23.937414 -0.599331 0.110677 -7.557613 0.000000 0.000000 0.000000 7.867013 -5.148762 -26.921760 21.232762 -32.099028 6.173197 21.351457 -16.065492 -14.696211 0.000000 0.000000 0.000000 -7.125000 0.000000 0.000000 -5.804789 45.626385 0.090047 0.000000 0.000000 0.000000 -0.744389 -1.303065 31.096547 -30.589000 -41.392966 -11.797207 -21.694705 1.699105 11.571967 0.000000 0.000000 0.000000 7.125000 0.000000 0.000000 4.927575 42.355353 0.322410
8.669099 16.248105 -5.199681 76.618458 -88.028909 -62.147381 0.000000 0.000000 0.000000 -21.739427 -1.218921 -46.467684 12.193732 18.471356 66.601519 -0.125436 -6.748900 5.133923 1.552363 -7.863784 -22.301191 0.000000 0.000000 0.000000 2.213534 22.725937 -62.080392 -4.475097 -12.767090 38.502743 0.292086 -25.453992 16.025161 -0.485892 -4.465294 12.390327 1.441428 -1.337595 34.702841 -1.964920 -2.467727 9.761913 -1.886988 -1.560735 -6.929001 3.495427 1.378014 1.493514 0.141347 1.571074 -23.924289 -0.608740 0.082732 -7.558111 0.000000 0.000000 0.000000 7.867562 -5.203073 -27.108924 21.355281 -32.240715 6.238370 21.376735 -16.125200 -14.661843 0.000000 0.000000 0.000000 -7.125000 0.000000 0.000000 -5.774363 45.593280 0.084854 0.000000 0.000000 0.000000 -0.789272 -1.349503 31.019243 -30.630632 -41.427857 -11.824737 -21.707767 1.694024 11.567975 0.000000 0.000000 0.000000 7.125000 0.000000 0.000000 4.915248 42.352359 0.321920
8.978817 16.210339 -5.168985 85.133531 -88.140343 -70.622861 0.000000 0.000000 0.000000 -21.923650 -1.064485 -47.893778 12.299604 18.514405 66.935353 -0.143211 -6.962817 4.579808 1.507397 -7.754144 -21.969815 0.000000 0.000000 0.000000 2.350279 22.262178 -62.802863 -4.605196 -12.924438 39.087008 0.212577 -23.239763 14.835609 -0.287049 -3.434590 9.492156 1.377647 -1.171053 34.870454 -1.963370 -2.290511 9.764253 -1.911727 -1.480870 -6.977098 3.476592 1.351680 1.467004 0.090171 1.524711 -23.834434 -0.619109 0.071017 -7.523653 0.000000 0.000000 0.000000 7.842803 -5.088253 -27.192705 21.492648 -32.398859 6.311804 21.466329 -16.221408 -14.528127 0.000000 0.000000 0.000000 -7.125000 0.000000 0.000000 -5.664109 45.463494 0.064998 0.000000 0.000000 0.000000 -0.891647 -1.393558 31.034610 -30.572602 -41.379136 -11.786286 -21.653956 1.716966 11.590645 0.000000 0.000000 0.000000 7.125000 0.000000 0.000000 4.966954 42.371008 0.323030
9.274198 16.148059 -5.142661 95.352702 -88.190956 -80.915047 0.000000 0.000000 0.000000 -22.048546 -0.932532 -49.256945 12.485501 18.588350 67.519545 -0.163836 -7.262070 3.964929 1.468982 -7.659206 -21.683593 0.000000 0.000000 0.000000 2.906560 21.564427 -63.820606 -5.125946 -13.522543 41.360531 0.150460 -19.140748 12.124319 -0.111234 -2.131052 5.868721 1.251882 -1.002501 35.063751 -1.969231 -2.135441 9.773807 -1.903335 -1.412714 -7.026307 3.459718 1.333916 1.434612 0.056360 1.492884 -23.744007 -0.625078 0.064146 -7.488008 0.000000 0.000000 0.000000 7.836829 -4.833374 -27.203919 21.618542 -32.543226 6.379461 21.560650 -16.321808 -14.364179 0.000000 0.000000 0.000000 -7.125000 0.000000 0.000000 -5.544110 45.302130 0.041511 0.000000 0.000000 0.000000 -1.004985 -1.466198 31.106816 -30.395046 -41.229566 -11.669140 -21.622093 1.769293 11.610030 0.000000 0.000000 0.000000 7.125000 0.000000 0.000000 4.998482 42.388405 0.322925
